<svg width="22" height="22" viewBox="0 0 22 22" fill="none" xmlns="http://www.w3.org/2000/svg">
<g clip-path="url(#clip0_53_9)">
<path d="M0 11C0 12.496 0.293333 13.9187 0.88 15.268C1.46667 16.6173 2.244 17.7907 3.212 18.788C4.18 19.7853 5.35333 20.57 6.732 21.142C8.11067 21.714 9.53333 22 11 22C12.4667 22 13.8893 21.714 15.268 21.142C16.6467 20.57 17.82 19.7853 18.788 18.788C19.756 17.7907 20.5333 16.6173 21.12 15.268C21.7067 13.9187 22 12.496 22 11C22 9.504 21.7067 8.08133 21.12 6.732C20.5333 5.38267 19.756 4.20933 18.788 3.212C17.82 2.21467 16.654 1.43733 15.29 0.88C13.926 0.322667 12.496 0.0293333 11 0C9.504 0 8.08133 0.293333 6.732 0.88C5.38267 1.46667 4.20933 2.244 3.212 3.212C2.21467 4.18 1.43733 5.35333 0.88 6.732C0.322667 8.11067 0.0293333 9.53333 0 11ZM2.75 11C2.75 9.504 3.11667 8.12533 3.85 6.864C4.58333 5.60267 5.588 4.60533 6.864 3.872C8.14 3.13867 9.51867 2.76467 11 2.75C12.4813 2.73533 13.86 3.10933 15.136 3.872C16.412 4.63467 17.4167 5.632 18.15 6.864C18.8833 8.096 19.25 9.47467 19.25 11C19.25 12.5253 18.8833 13.9113 18.15 15.158C17.4167 16.4047 16.412 17.402 15.136 18.15C13.86 18.898 12.4813 19.2647 11 19.25C9.51867 19.2353 8.14 18.8687 6.864 18.15C5.588 17.4313 4.58333 16.434 3.85 15.158C3.11667 13.882 2.75 12.496 2.75 11ZM6.886 15.818C6.886 16.082 6.93733 16.346 7.04 16.61C8.228 17.4607 9.548 17.886 11 17.886C12.452 17.886 13.772 17.4607 14.96 16.61C15.0773 16.346 15.136 16.082 15.136 15.818C15.0187 15.202 14.7693 14.6373 14.388 14.124C14.0067 13.6107 13.5373 13.2 12.98 12.892C13.4933 12.364 13.75 11.7333 13.75 11V9.636C13.75 8.87333 13.4787 8.22067 12.936 7.678C12.3933 7.13533 11.748 6.87133 11 6.886C10.252 6.90067 9.60667 7.16467 9.064 7.678C8.52133 8.19133 8.25 8.844 8.25 9.636V11C8.25 11.7333 8.50667 12.364 9.02 12.892C8.46267 13.2 7.99333 13.6107 7.612 14.124C7.23067 14.6373 6.98867 15.202 6.886 15.818Z" fill="white"/>
</g>
<defs>
<clipPath id="clip0_53_9">
<rect width="22" height="22" fill="white"/>
</clipPath>
</defs>
</svg>
